<mxfile host="app.diagrams.net" agent="Mozilla/5.0 (Windows NT 10.0; Win64; x64) AppleWebKit/537.36 (KHTML, like Gecko) Chrome/133.0.0.0 Safari/537.36 Edg/133.0.0.0" version="26.0.14">
  <diagram name="第 1 页" id="GKdn14sqpNzR2bgwpwxv">
    <mxGraphModel dx="2040" dy="815" grid="1" gridSize="10" guides="1" tooltips="1" connect="1" arrows="1" fold="1" page="1" pageScale="1" pageWidth="827" pageHeight="1169" math="0" shadow="0">
      <root>
        <mxCell id="0" />
        <mxCell id="1" parent="0" />
        <mxCell id="2fFsd0xJ3YchLGNpY5U0-1" value="" style="rounded=1;arcSize=5;whiteSpace=wrap;html=1;fillColor=#d5e8d4;strokeColor=light-dark(#517f31, #446e2c);" vertex="1" parent="1">
          <mxGeometry x="170" y="460" width="570" height="220" as="geometry" />
        </mxCell>
        <mxCell id="2fFsd0xJ3YchLGNpY5U0-3" value="" style="group" vertex="1" connectable="0" parent="1">
          <mxGeometry x="10" y="491.19" width="140" height="100" as="geometry" />
        </mxCell>
        <mxCell id="2fFsd0xJ3YchLGNpY5U0-4" value="" style="group" vertex="1" connectable="0" parent="2fFsd0xJ3YchLGNpY5U0-3">
          <mxGeometry x="-50" width="190" height="88" as="geometry" />
        </mxCell>
        <mxCell id="2fFsd0xJ3YchLGNpY5U0-5" value="" style="shape=actor;whiteSpace=wrap;html=1;" vertex="1" parent="2fFsd0xJ3YchLGNpY5U0-4">
          <mxGeometry x="50" width="40" height="60" as="geometry" />
        </mxCell>
        <mxCell id="2fFsd0xJ3YchLGNpY5U0-6" value="&lt;font face=&quot;Times New Roman&quot; style=&quot;font-size: 14px;&quot;&gt;I&#39;m sleepy&lt;/font&gt;" style="whiteSpace=wrap;html=1;shape=mxgraph.basic.roundRectCallout;dx=30;dy=15;size=5;boundedLbl=1;" vertex="1" parent="2fFsd0xJ3YchLGNpY5U0-4">
          <mxGeometry x="100" width="80" height="60" as="geometry" />
        </mxCell>
        <mxCell id="2fFsd0xJ3YchLGNpY5U0-7" value="&lt;font face=&quot;Times New Roman&quot; style=&quot;font-size: 14px;&quot;&gt;Human Dialogue&lt;/font&gt;" style="text;html=1;align=center;verticalAlign=middle;resizable=0;points=[];autosize=1;strokeColor=none;fillColor=none;" vertex="1" parent="2fFsd0xJ3YchLGNpY5U0-3">
          <mxGeometry y="70" width="120" height="30" as="geometry" />
        </mxCell>
        <mxCell id="2fFsd0xJ3YchLGNpY5U0-10" value="" style="group;strokeWidth=24;" vertex="1" connectable="0" parent="1">
          <mxGeometry x="190" y="520" width="140" height="145.37" as="geometry" />
        </mxCell>
        <mxCell id="2fFsd0xJ3YchLGNpY5U0-11" value="&lt;span style=&quot;color: rgba(0, 0, 0, 0); font-family: monospace; font-size: 0px; text-align: start;&quot;&gt;%3CmxGraphModel%3E%3Croot%3E%3CmxCell%20id%3D%220%22%2F%3E%3CmxCell%20id%3D%221%22%20parent%3D%220%22%2F%3E%3CmxCell%20id%3D%222%22%20value%3D%22%26lt%3Bb%26gt%3BEnv.%20Prompt%26lt%3B%2Fb%26gt%3B%22%20style%3D%22text%3Bhtml%3D1%3Balign%3Dcenter%3BverticalAlign%3Dmiddle%3Bresizable%3D0%3Bpoints%3D%5B%5D%3Bautosize%3D1%3BstrokeColor%3Dnone%3BfillColor%3Dnone%3B%22%20vertex%3D%221%22%20parent%3D%221%22%3E%3CmxGeometry%20x%3D%22235%22%20y%3D%22265%22%20width%3D%2290%22%20height%3D%2230%22%20as%3D%22geometry%22%2F%3E%3C%2FmxCell%3E%3C%2Froot%3E%3C%2FmxGraphModel%3E&lt;/span&gt;" style="text;html=1;align=center;verticalAlign=middle;resizable=0;points=[];autosize=1;strokeColor=none;fillColor=none;fontStyle=4" vertex="1" parent="2fFsd0xJ3YchLGNpY5U0-10">
          <mxGeometry x="49.90099009900991" y="107.91137532054826" width="20" height="30" as="geometry" />
        </mxCell>
        <mxCell id="2fFsd0xJ3YchLGNpY5U0-12" value="&lt;b&gt;&lt;font face=&quot;Times New Roman&quot;&gt;Action Prompt&lt;/font&gt;&lt;/b&gt;" style="text;html=1;align=center;verticalAlign=middle;resizable=0;points=[];autosize=1;strokeColor=none;fillColor=none;" vertex="1" parent="2fFsd0xJ3YchLGNpY5U0-10">
          <mxGeometry x="9.89615261526152" y="107.9131589796444" width="100" height="30" as="geometry" />
        </mxCell>
        <mxCell id="2fFsd0xJ3YchLGNpY5U0-13" value="&lt;div style=&quot;color: rgb(51, 51, 51);&quot;&gt;&lt;span style=&quot;background-color: transparent; color: light-dark(rgb(51, 51, 51), rgb(193, 193, 193));&quot;&gt;&lt;font face=&quot;Times New Roman&quot;&gt;&amp;nbsp; Object List:&lt;/font&gt;&lt;/span&gt;&lt;/div&gt;&lt;div style=&quot;color: rgb(51, 51, 51);&quot;&gt;&lt;font face=&quot;Times New Roman&quot;&gt;&amp;nbsp; Action history:&lt;/font&gt;&lt;/div&gt;&lt;div style=&quot;color: rgb(51, 51, 51);&quot;&gt;&lt;font face=&quot;Times New Roman&quot;&gt;&amp;nbsp; Dialogue history:&lt;/font&gt;&lt;/div&gt;&lt;div style=&quot;color: rgb(51, 51, 51);&quot;&gt;&lt;font face=&quot;Times New Roman&quot;&gt;&amp;nbsp; Human dialogue:&lt;/font&gt;&lt;/div&gt;" style="strokeWidth=1;html=1;shape=mxgraph.flowchart.multi-document;whiteSpace=wrap;align=left;fillColor=light-dark(#e7e6e6, #ededed);" vertex="1" parent="2fFsd0xJ3YchLGNpY5U0-10">
          <mxGeometry x="-5.54909090909091" y="-12.600329375054173" width="138.61272727272728" height="120.50955014301812" as="geometry" />
        </mxCell>
        <mxCell id="2fFsd0xJ3YchLGNpY5U0-26" value="&lt;font style=&quot;font-size: 15px;&quot; face=&quot;Times New Roman&quot;&gt;Low-Level Mind&lt;/font&gt;" style="text;html=1;align=center;verticalAlign=middle;resizable=0;points=[];autosize=1;strokeColor=none;fillColor=none;fontColor=light-dark(#548235, #69c195);fontStyle=1" vertex="1" parent="1">
          <mxGeometry x="170" y="470" width="130" height="30" as="geometry" />
        </mxCell>
        <mxCell id="2fFsd0xJ3YchLGNpY5U0-32" style="edgeStyle=orthogonalEdgeStyle;rounded=1;orthogonalLoop=1;jettySize=auto;html=1;fillColor=#1ba1e2;strokeColor=light-dark(#446230, #28ab6a);curved=0;" edge="1" parent="1">
          <mxGeometry relative="1" as="geometry">
            <mxPoint x="330" y="557.21" as="sourcePoint" />
            <mxPoint x="385" y="557.21" as="targetPoint" />
          </mxGeometry>
        </mxCell>
        <mxCell id="2fFsd0xJ3YchLGNpY5U0-33" value="" style="group" vertex="1" connectable="0" parent="1">
          <mxGeometry x="389.62" y="515" width="86.75" height="110.37" as="geometry" />
        </mxCell>
        <mxCell id="2fFsd0xJ3YchLGNpY5U0-34" value="" style="group;fontStyle=0;strokeWidth=2;" vertex="1" connectable="0" parent="2fFsd0xJ3YchLGNpY5U0-33">
          <mxGeometry width="86.75" height="110.37" as="geometry" />
        </mxCell>
        <mxCell id="2fFsd0xJ3YchLGNpY5U0-35" value="&lt;b&gt;&lt;font face=&quot;Times New Roman&quot;&gt;LLM&lt;/font&gt;&lt;/b&gt;&lt;div&gt;&lt;b&gt;&lt;font face=&quot;Times New Roman&quot;&gt;GPT-4o-mini&lt;/font&gt;&lt;/b&gt;&lt;/div&gt;" style="text;html=1;align=center;verticalAlign=middle;resizable=0;points=[];autosize=1;strokeColor=none;fillColor=none;" vertex="1" parent="2fFsd0xJ3YchLGNpY5U0-34">
          <mxGeometry x="-0.09954102122776787" y="70.37013422818792" width="90" height="40" as="geometry" />
        </mxCell>
        <mxCell id="2fFsd0xJ3YchLGNpY5U0-38" style="edgeStyle=orthogonalEdgeStyle;rounded=1;orthogonalLoop=1;jettySize=auto;html=1;fillColor=#1ba1e2;strokeColor=light-dark(#385723, #28ab6a);curved=0;" edge="1" parent="1">
          <mxGeometry relative="1" as="geometry">
            <mxPoint x="476.37" y="557" as="sourcePoint" />
            <mxPoint x="512.37" y="557" as="targetPoint" />
            <Array as="points">
              <mxPoint x="512.74" y="557.21" />
              <mxPoint x="512.74" y="557.21" />
            </Array>
          </mxGeometry>
        </mxCell>
        <mxCell id="2fFsd0xJ3YchLGNpY5U0-44" value="" style="shape=image;html=1;verticalAlign=top;verticalLabelPosition=bottom;labelBackgroundColor=#ffffff;imageAspect=0;aspect=fixed;image=https://cdn0.iconfinder.com/data/icons/phosphor-light-vol-1/256/brain-light-128.png;imageBackground=none;imageBorder=none;" vertex="1" parent="1">
          <mxGeometry x="400.31" y="530" width="65.37" height="65.37" as="geometry" />
        </mxCell>
        <mxCell id="2fFsd0xJ3YchLGNpY5U0-47" style="edgeStyle=orthogonalEdgeStyle;rounded=1;orthogonalLoop=1;jettySize=auto;html=1;fillColor=#1ba1e2;strokeColor=light-dark(#385723, #28ab6a);curved=0;" edge="1" parent="1">
          <mxGeometry relative="1" as="geometry">
            <mxPoint x="592.04" y="560" as="sourcePoint" />
            <mxPoint x="628.04" y="560" as="targetPoint" />
            <Array as="points">
              <mxPoint x="628.41" y="560.21" />
              <mxPoint x="628.41" y="560.21" />
            </Array>
          </mxGeometry>
        </mxCell>
        <mxCell id="2fFsd0xJ3YchLGNpY5U0-48" value="" style="group" vertex="1" connectable="0" parent="1">
          <mxGeometry x="502.0371428571427" y="540" width="100" height="82.00037037037032" as="geometry" />
        </mxCell>
        <mxCell id="2fFsd0xJ3YchLGNpY5U0-49" value="" style="html=1;verticalLabelPosition=bottom;align=center;labelBackgroundColor=#ffffff;verticalAlign=top;strokeWidth=4;strokeColor=light-dark(#548235, #32a0ff);shadow=0;dashed=0;shape=mxgraph.ios7.icons.pie_chart;aspect=fixed;fillColor=light-dark(#d5e8d4, #ededed);fontStyle=0" vertex="1" parent="2fFsd0xJ3YchLGNpY5U0-48">
          <mxGeometry x="23.132857142857233" width="53.74" height="52" as="geometry" />
        </mxCell>
        <mxCell id="2fFsd0xJ3YchLGNpY5U0-50" value="&lt;b&gt;&lt;font face=&quot;Times New Roman&quot;&gt;Probability List&lt;/font&gt;&lt;/b&gt;" style="text;html=1;align=center;verticalAlign=middle;resizable=0;points=[];autosize=1;strokeColor=none;fillColor=none;fontStyle=0" vertex="1" parent="2fFsd0xJ3YchLGNpY5U0-48">
          <mxGeometry y="52.00037037037032" width="100" height="30" as="geometry" />
        </mxCell>
        <mxCell id="2fFsd0xJ3YchLGNpY5U0-51" value="" style="group" vertex="1" connectable="0" parent="1">
          <mxGeometry x="620" y="540" width="130" height="82" as="geometry" />
        </mxCell>
        <mxCell id="2fFsd0xJ3YchLGNpY5U0-52" value="&lt;font face=&quot;Times New Roman&quot;&gt;&lt;span style=&quot;color: rgb(44, 44, 54); letter-spacing: 0.08px; text-align: start; white-space: pre-wrap;&quot;&gt;&lt;b&gt;Transition Equation&lt;/b&gt;&lt;/span&gt;&lt;/font&gt;" style="text;html=1;align=center;verticalAlign=middle;resizable=0;points=[];autosize=1;strokeColor=none;fillColor=none;fontStyle=0" vertex="1" parent="2fFsd0xJ3YchLGNpY5U0-51">
          <mxGeometry x="-9.236521739130433" y="58.22009936721152" width="130" height="30" as="geometry" />
        </mxCell>
        <mxCell id="2fFsd0xJ3YchLGNpY5U0-53" value="" style="shape=flexArrow;endArrow=classic;html=1;rounded=0;fillColor=light-dark(#517f31, #2566a8);strokeColor=light-dark(#517f31, #ededed);endWidth=8.045977011494253;endSize=4.83448275862069;" edge="1" parent="2fFsd0xJ3YchLGNpY5U0-51">
          <mxGeometry width="50" height="50" relative="1" as="geometry">
            <mxPoint x="100" y="32.26999999999998" as="sourcePoint" />
            <mxPoint x="150" y="32.26999999999998" as="targetPoint" />
            <Array as="points">
              <mxPoint x="110" y="32.26999999999998" />
            </Array>
          </mxGeometry>
        </mxCell>
        <mxCell id="2fFsd0xJ3YchLGNpY5U0-54" value="" style="html=1;verticalLabelPosition=bottom;align=center;labelBackgroundColor=#ffffff;verticalAlign=top;strokeWidth=3;strokeColor=light-dark(#548235, #32a0ff);shadow=0;dashed=0;shape=mxgraph.ios7.icons.keypad;aspect=fixed;fillColor=none;" vertex="1" parent="1">
          <mxGeometry x="650" y="540" width="51.53" height="51.53" as="geometry" />
        </mxCell>
        <mxCell id="2fFsd0xJ3YchLGNpY5U0-55" value="&lt;b&gt;Target&lt;/b&gt;" style="rounded=1;arcSize=5;whiteSpace=wrap;html=1;fillColor=light-dark(#ffffff, #1f2f1e);strokeColor=light-dark(#517f31, #446e2c);" vertex="1" parent="1">
          <mxGeometry x="780" y="554.19" width="132" height="37" as="geometry" />
        </mxCell>
        <mxCell id="2fFsd0xJ3YchLGNpY5U0-56" value="" style="shape=singleArrow;whiteSpace=wrap;html=1;fillColor=light-dark(#eeeeee, #1a1a1a);strokeColor=#666666;gradientColor=none;arrowWidth=0.2694299018673807;arrowSize=0.35238037109375;" vertex="1" parent="1">
          <mxGeometry x="110" y="539.31" width="70" height="30.69" as="geometry" />
        </mxCell>
      </root>
    </mxGraphModel>
  </diagram>
</mxfile>
